<?xml version="1.0" standalone="no"?><!DOCTYPE svg PUBLIC "-//W3C//DTD SVG 1.1//EN" "http://www.w3.org/Graphics/SVG/1.1/DTD/svg11.dtd"><svg t="1705817643902" class="icon" viewBox="0 0 1024 1024" version="1.1" xmlns="http://www.w3.org/2000/svg" p-id="9191" xmlns:xlink="http://www.w3.org/1999/xlink" width="200" height="200"><path d="M902.3488 468.7872L744.448 195.5328a95.6928 95.6928 0 0 0-74.8032-43.2128H354.1504a95.9488 95.9488 0 0 0-74.8032 43.2128L121.6 468.7872a95.8464 95.8464 0 0 0 0 86.272l157.7472 273.408a95.6928 95.6928 0 0 0 74.8032 43.2128h315.648a96.2048 96.2048 0 0 0 74.8032-43.2128l157.7472-273.408a95.8464 95.8464 0 0 0 0-86.272zM477.7984 303.4624a32.512 32.512 0 1 1 65.0752 0v194.56a32.512 32.512 0 1 1-65.0752 0z m32.512 414.72a220.5696 220.5696 0 0 1-131.4816-397.4144 28.9792 28.9792 0 1 1 34.56 46.4896 162.7136 162.7136 0 1 0 193.4336-0.4608 28.9792 28.9792 0 1 1 34.4064-46.6432 220.672 220.672 0 0 1-130.8672 398.336z" fill="#6DB33F" p-id="9192"></path></svg>