<?xml version="1.0" standalone="no"?><!DOCTYPE svg PUBLIC "-//W3C//DTD SVG 1.1//EN" "http://www.w3.org/Graphics/SVG/1.1/DTD/svg11.dtd"><svg t="1713681246409" class="icon" viewBox="0 0 1024 1024" version="1.1" xmlns="http://www.w3.org/2000/svg" p-id="8093" width="16" height="16" xmlns:xlink="http://www.w3.org/1999/xlink"><path d="M40.966075 1024a41.317827 41.317827 0 0 1-32.942592-16.378238 39.363606 39.363606 0 0 1-6.234898-35.548221c101.805637-320.864569 101.991754-321.143743 111.297571-330.356501L728.200657 24.555259a82.914829 82.914829 0 0 1 117.43941 0l154.569619 155.034911a78.354979 78.354979 0 0 1 0 111.669803l-616.603431 618.836827c-9.864166 9.491933-9.957224 9.67805-329.984269 111.948978A41.69006 41.69006 0 0 1 40.966075 1024z m120.045038-318.910347c-9.957224 28.848033-44.947096 137.353858-75.656292 233.576006 95.477682-30.52308 202.587635-64.861544 231.714843-74.818769l621.256339-620.791049L780.964639 85.694477 161.011113 705.275769v-0.186116z m652.523885-278.243927a39.549722 39.549722 0 0 1-28.103567-11.632271L606.852804 236.727886a39.735838 39.735838 0 0 1 56.114076-56.021018l178.578627 178.485569a39.735838 39.735838 0 0 1-28.103567 67.653289h0.093058z m210.125347 511.819933H511.840412v51.181993c0 18.890808 19.076925 34.152348 42.620642 34.152348h426.485591c23.543717 0 42.620642-15.26154 42.620642-34.152348v-51.181993H1023.660345z" fill="#1296db" p-id="8094"></path></svg>